<?xml version="1.0" encoding="utf-8"?>
<!-- Generator: Adobe Illustrator 15.0.2, SVG Export Plug-In . SVG Version: 6.00 Build 0)  -->
<!DOCTYPE svg PUBLIC "-//W3C//DTD SVG 1.1//EN" "http://www.w3.org/Graphics/SVG/1.1/DTD/svg11.dtd">
<svg version="1.1" id="Layer_1" xmlns="http://www.w3.org/2000/svg" xmlns:xlink="http://www.w3.org/1999/xlink" x="0px" y="0px"
	 width="60px" height="60px" viewBox="0 0 60 60" enable-background="new 0 0 60 60" xml:space="preserve">
<path fill="#999" d="M60,10c0-5.5-4.5-10-10-10H10C4.5,0,0,4.5,0,10v40c0,5.5,4.5,10,10,10h40c5.5,0,10-4.5,10-10V10z M52,28
	c0,0.2,0,0.3,0,0.5l0,0c-0.2,2-1.9,3.5-4,3.5c-1.2,0-2.3-0.6-3.1-1.5L41.4,27L20,48.5c-0.8,0.8-2,0.8-2.8,0l-5.7-5.7
	c-0.8-0.8-0.8-2,0-2.8l21.4-21.4l-3.5-3.5c-0.2-0.2-0.4-0.3-0.5-0.5l0,0C28.3,13.9,28,13,28,12s0.4-2,1-2.7l0,0
	C29.1,9.2,30.1,8,32,8h16c2.2,0,4,1.8,4,4V28z"/>
</svg>
